<?xml version="1.0" encoding="UTF-8"?>
<svg id="_レイヤー_1" data-name="レイヤー 1" xmlns="http://www.w3.org/2000/svg" viewBox="0 0 2048 2048">
  <defs>
    <style>
      .cls-1 {
        fill: #bc002d;
      }

      .cls-2 {
        fill: #1c1f2b;
      }

      .cls-3 {
        stroke-width: 64px;
      }

      .cls-3, .cls-4 {
        fill: none;
        stroke: #1c1f2b;
        stroke-linecap: round;
        stroke-miterlimit: 10;
      }

      .cls-4 {
        stroke-width: 54px;
      }

      .cls-5 {
        opacity: 0;
      }
    </style>
  </defs>
  <g class="cls-5">
    <rect class="cls-2" x="-106.25" y="-94.77" width="2240.83" height="2216.98"/>
  </g>
  <g>
    <path class="cls-2" d="M1239.49,524.62c100.06-59.65,265.05-202.24,382.92-191.64,7.32.66,34.52,5.46,38.75,9.71,12.27,12.34-4.98,44.63-11.24,57.64-19.92,41.45-30.11,17.45-64.92,43.45-82.98,61.98-176.85,121.98-265.59,179.52-130.65,84.71-254.85,182.53-390.25,260.16-68.5,39.27-202.16,82.54-202.16,82.54,0,0-39.39-7.44-64.22-14.23-16.36-4.47-135.84-41.93-139.07-48.56-2.23-4.59,8.23-8.09,11.56-10.21,5.55-3.53,30.03-18.16,34.18-18.57,6.64-.64,12.18,2.41,24.63,5.33,21.84,5.12,76.42,8.52,76.42,8.52,0,0-13.98-22.91-19.2-31.35-27.87-45.04-102.54-131.92-102.54-131.92,0,0,22.93-18.7,27.21-19.89,9.73-2.7,57.46,25.41,70.68,31.38,44.5,20.11,136.14,66.95,181.93,61.98,15.11-1.64,28.93-12.68,41.94-20.58,49.2-29.89,95.27-69.01,144.09-99.78l-494.03-211.05c22.67-9.29,42.04-22.63,67.06-22.01,55.13,1.35,144.85,22.33,202.5,32.27,81.45,14.04,162.07,31.01,243.94,43.74,8.76,1.36,29.55,7.72,29.55,7.72"/>
    <path class="cls-2" d="M844.28,1295.76c142.51-137.54,276.25-309.17,336.03-500.39-81.78,132.74-170.63,268.14-290.74,370.58-291.9,240.25-645.49,371.26-602.2,820.81,62.28-235.51,234.73-426.56,424.36-571.38"/>
    <path class="cls-2" d="M160.99,1627.14c17.74-113.9,43.21-201.01,156.7-257.59,270.31-134.76,528.22-241.76,731.29-452.23-206,340.2-656.35,401.92-887.99,709.82Z"/>
    <path class="cls-2" d="M455.02,1148.89c-96.09,23.23-163.69,36.29-214.25,58.27s-91.4,49.57-115.63,100.13c-23.95,49.98-38.94,133.53-49.93,186.87,51.17-90.47,99.03-139.8,157.95-182.05,76.94-55.17,148.58-81.2,223.83-114.33,178.12-78.42,242-150.16,242-150.16,0,0-175.43,84.69-243.98,101.27Z"/>
    <path class="cls-2" d="M1349.16,651.54l175.14,390.84c-16.3,17.45-48.4-12.62-71.95-32.77-75.55-64.67-159.7-141.94-223.5-217.4-6.98-8.26-16.31-15.17-23.43-23.41l143.74-117.25Z"/>
    <path class="cls-2" d="M798.86,1051.78c-12.36,5.51-23.06,6.9-34.38,8.04-8.55.86-21.64-40.3-25.09-50.19.02-2.69,48.43-14.23,51.97-13.98,2.86.2,7.51,2.6,7.51,4.54v51.59Z"/>
  </g>
  <g>
    <path class="cls-3" d="M1426.36,300.17c-123.67-73.71-268.58-115.32-423.09-113.45-446.5,5.39-804.09,371.73-798.7,818.23.32,26.67,1.93,53.03,4.77,79.01"/>
    <path class="cls-3" d="M1768.44,1284.02c35.45-92.63,54.33-193.39,53.06-298.6-2.04-168.6-55.54-324.52-145.39-453.01"/>
  </g>
  <line class="cls-4" x1="965" y1="1447" x2="1137" y2="1447"/>
  <line class="cls-4" x1="823" y1="1553.78" x2="1279" y2="1553.78"/>
  <line class="cls-4" x1="699" y1="1649.78" x2="1403" y2="1649.78"/>
  <line class="cls-4" x1="527" y1="1759.78" x2="1571" y2="1759.78"/>
  <circle class="cls-1" cx="1596.36" cy="1440" r="100.88"/>
</svg>